<svg xmlns="http://www.w3.org/2000/svg" xmlns:xlink="http://www.w3.org/1999/xlink" version="1.1" id="Layer_1" x="0px" y="0px" viewBox="0 0 776 774" style="enable-background:new 0 0 776 774;" xml:space="preserve"><script xmlns="" id="argent-x-extension" data-extension-id="dlcobpjiigpikoobohmabehhmhfoodbb"/>
    <g>
        <path d="M596.9,436.4l3-6.6c4-8.7,6.9-20.1,8.3-32.2c1.9-17.1-1.7-41.4-8.5-56.8l-2.5-5.5l26.4-26.4   c14.5-14.5,26.4-26.8,26.4-27.4c0-0.6-9.6-10.6-21.3-22.3c-11.7-11.6-21.4-21.1-21.7-21c-0.3,0-12.2,12-26.5,26.5   C566.2,279.1,554,291,553.4,291c-0.6,0-3.9-1.2-7.4-2.6c-11.6-4.7-23-6.7-39-6.7c-30-0.1-54.3,9-81.1,30.3   c-7.1,5.7-29.8,26.1-34.3,30.9l-2.9,3l-13.1-12.1c-44.7-41.3-74.9-55.4-111.1-51.9c-13.9,1.3-24.8,3.9-34.7,8.3l-7,3.1l-26.6-26.6   L169.5,240l-21.8,21.7L126,283.5l26.6,26.6l26.7,26.7l-3.7,8.5c-11.1,25.9-11,60.2,0.3,86.7l2.8,6.5l-26.6,26.8L125.5,492   l21.8,21.7l21.7,21.8l26.3-26.3c14.4-14.4,26.7-26.2,27.3-26.2c0.6,0,3.9,1.2,7.4,2.6c11.6,4.7,23,6.7,39,6.7   c20.6,0.1,35.2-3.3,53.3-12.3c15.5-7.8,28-17.2,51.2-38.7l14-13l13.4,12.4c32.7,30.2,55,44,80.5,49.8c19.6,4.4,46,1.8,64.4-6.5   c3.5-1.7,7-3,7.6-3c0.6,0,12.9,11.8,27.3,26.2l26.3,26.3l21.7-21.8l21.8-21.7l-26.8-26.8L596.9,436.4z M337.9,398.4   c-14.6,14-25.6,22.5-36.1,28c-12.1,6.5-18,7.9-30.2,7.4c-8.8-0.3-10.9-0.8-16.7-3.6c-13.3-6.4-22.8-19.8-25-35.5   c-3.4-23.4,9.7-45.3,31.6-52.9c6.5-2.2,20.3-2.3,27.6-0.2c13.5,4,25.7,12.5,46.1,32.3l14.1,13.6L337.9,398.4z M519.3,430.3   c-5.8,2.7-8.2,3.2-16.4,3.5c-20.3,0.9-34.2-6.7-62.1-33.7l-14.1-13.6l11.4-10.9c20-19.1,36.4-30.3,49.9-34.1c3.7-1,8.9-1.4,16-1.2   c9.4,0.3,11.2,0.6,17.1,3.5c4.3,2,8.5,5.2,12.2,9.1C556,376.7,548.7,416.4,519.3,430.3z" fill="#fff" />
        <path d="M761.4,316.5c-20.5-106.9-84.3-198.6-177.4-255C538.5,34,486.2,16,432,9.5c-12.9-1.6-57.3-2.8-68.5-1.9   C283.1,14.1,211.9,41.5,152,89.3C72.5,152.6,22.9,241.9,10.3,344c-2.4,20.3-2.4,65.7,0,86C22.9,532.1,72.5,621.4,152,684.7   c54.9,43.8,120.9,71.1,193,80c20.3,2.4,65.7,2.4,86,0c55.5-6.8,107.2-24.5,153-52.2c93.1-56.4,156.9-148.1,177.4-255   c4.8-24.9,6-39.8,6-70.5S766.2,341.4,761.4,316.5z M628.7,511.7L607,533.5l-26.3-26.3C566.3,492.8,554,481,553.4,481   c-0.6,0-4.1,1.3-7.6,3c-18.4,8.3-44.8,10.9-64.4,6.5c-25.5-5.8-47.8-19.6-80.5-49.8l-13.4-12.4l-14,13   c-23.2,21.5-35.7,30.9-51.2,38.7c-18.1,9-32.7,12.4-53.3,12.3c-16,0-27.4-2-39-6.7c-3.5-1.4-6.8-2.6-7.4-2.6   c-0.6,0-12.9,11.8-27.3,26.2L169,535.5l-21.7-21.8L125.5,492l26.6-26.7l26.6-26.8l-2.8-6.5c-11.3-26.5-11.4-60.8-0.3-86.7l3.7-8.5   l-26.7-26.7L126,283.5l21.7-21.8l21.8-21.7l26.7,26.7l26.6,26.6l7-3.1c9.9-4.4,20.8-7,34.7-8.3c36.2-3.5,66.4,10.6,111.1,51.9   l13.1,12.1l2.9-3c4.5-4.8,27.2-25.2,34.3-30.9c26.8-21.3,51.1-30.4,81.1-30.3c16,0,27.4,2,39,6.7c3.5,1.4,6.8,2.6,7.4,2.6   c0.6,0,12.8-11.9,27.1-26.3c14.3-14.5,26.2-26.5,26.5-26.5c0.3-0.1,10,9.4,21.7,21c11.7,11.7,21.3,21.7,21.3,22.3   c0,0.6-11.9,12.9-26.4,27.4l-26.4,26.4l2.5,5.5c6.8,15.4,10.4,39.7,8.5,56.8c-1.4,12.1-4.3,23.5-8.3,32.2l-3,6.6l26.8,26.8   l26.8,26.8L628.7,511.7z" fill="transparent"/>
        <path d="M289.1,341.6c-7.3-2.1-21.1-2-27.6,0.2c-21.9,7.6-35,29.5-31.6,52.9c2.2,15.7,11.7,29.1,25,35.5c5.8,2.8,7.9,3.3,16.7,3.6   c12.2,0.5,18.1-0.9,30.2-7.4c10.5-5.5,21.5-14,36.1-28l11.4-10.9l-14.1-13.6C314.8,354.1,302.6,345.6,289.1,341.6z" style="fill: #333;"/>
        <path d="M521.1,343.8c-5.9-2.9-7.7-3.2-17.1-3.5c-7.1-0.2-12.3,0.2-16,1.2c-13.5,3.8-29.9,15-49.9,34.1l-11.4,10.9l14.1,13.6   c27.9,27,41.8,34.6,62.1,33.7c8.2-0.3,10.6-0.8,16.4-3.5c29.4-13.9,36.7-53.6,14-77.4C529.6,349,525.4,345.8,521.1,343.8z" style="fill: #333;"/>
    </g>
</svg>