<?xml version="1.0" ?><svg viewBox="0 0 64 64" xmlns="http://www.w3.org/2000/svg"><defs><style>.cls-1{fill:#ecf0f1;}.cls-1,.cls-2,.cls-3{stroke:#434a54;stroke-linecap:round;stroke-linejoin:round;stroke-width:2px;}.cls-2{fill:#f1c40f;}.cls-3,.cls-4{fill:none;}</style></defs><title/><g data-name="katman 2" id="katman_2"><g id="icons"><ellipse class="cls-1" cx="11" cy="38" rx="5" ry="3"/><path class="cls-2" d="M16,38v6c0,1.66-2.24,3-5,3s-5-1.34-5-3V38c0,1.66,2.24,3,5,3S16,39.66,16,38Z"/><path class="cls-2" d="M30,38v6c0,1.66-2.24,3-5,3s-5-1.34-5-3V38c0,1.66,2.24,3,5,3S30,39.66,30,38Z"/><ellipse class="cls-1" cx="25" cy="32" rx="5" ry="3"/><path class="cls-2" d="M30,32v6c0,1.66-2.24,3-5,3s-5-1.34-5-3V32c0,1.66,2.24,3,5,3S30,33.66,30,32Z"/><path class="cls-2" d="M44,38v6c0,1.66-2.24,3-5,3s-5-1.34-5-3V38c0,1.66,2.24,3,5,3S44,39.66,44,38Z"/><path class="cls-2" d="M44,32v6c0,1.66-2.24,3-5,3s-5-1.34-5-3V32c0,1.66,2.24,3,5,3S44,33.66,44,32Z"/><path class="cls-2" d="M44,26v6c0,1.66-2.24,3-5,3s-5-1.34-5-3V26c0,1.66,2.24,3,5,3S44,27.66,44,26Z"/><ellipse class="cls-1" cx="39" cy="26" rx="5" ry="3"/><path class="cls-2" d="M58,38v6c0,1.66-2.24,3-5,3s-5-1.34-5-3V38c0,1.66,2.24,3,5,3S58,39.66,58,38Z"/><path class="cls-2" d="M58,32v6c0,1.66-2.24,3-5,3s-5-1.34-5-3V32c0,1.66,2.24,3,5,3S58,33.66,58,32Z"/><path class="cls-2" d="M58,26v6c0,1.66-2.24,3-5,3s-5-1.34-5-3V26c0,1.66,2.24,3,5,3S58,27.66,58,26Z"/><path class="cls-2" d="M58,20v6c0,1.66-2.24,3-5,3s-5-1.34-5-3V20c0,1.66,2.24,3,5,3S58,21.66,58,20Z"/><ellipse class="cls-1" cx="53" cy="20" rx="5" ry="3"/><line class="cls-3" x1="62" x2="62" y1="22" y2="29"/><line class="cls-3" x1="62" x2="62" y1="35" y2="42"/><line class="cls-3" x1="2" x2="2" y1="40" y2="43"/><rect class="cls-4" height="64" width="64"/></g></g></svg>